{
  "accessors": [
    {
      "bufferView": 0,
      "byteOffset": 0,
      "componentType": 5126,
      "count": 17373,
      "max": [70.87737274169922, 152.27655029296875, 15.417679786682129],
      "min": [-70.87738037109375, -0.19961999356746674, -7.628950119018555],
      "type": "VEC3"
    },
    {
      "bufferView": 1,
      "byteOffset": 0,
      "componentType": 5126,
      "count": 17373,
      "max": [0.9999706745147705, 0.9997973442077637, 0.9999450445175171],
      "min": [-0.9999706745147705, -0.9999334216117859, -0.9999966621398926],
      "type": "VEC3"
    },
    {
      "bufferView": 2,
      "byteOffset": 0,
      "componentType": 5126,
      "count": 17373,
      "max": [0.9999861121177673, 0.9998549818992615, 0.9998536705970764, 1.0],
      "min": [
        -0.9999994039535522,
        -0.9999732375144958,
        -0.9999816417694092,
        -1.0
      ],
      "type": "VEC4"
    },
    {
      "bufferView": 3,
      "byteOffset": 0,
      "componentType": 5126,
      "count": 17373,
      "max": [0.9982270002365112, 1.997979998588562],
      "min": [0.0017729999963194132, 1.003275990486145],
      "type": "VEC2"
    },
    {
      "bufferView": 4,
      "byteOffset": 0,
      "componentType": 5125,
      "count": 36552,
      "max": [17372.0],
      "min": [0.0],
      "type": "SCALAR"
    }
  ],
  "asset": {
    "extras": {
      "author": "ALexzart (https://sketchfab.com/ALartus)",
      "created": "Mon Apr 26 13:30:59 2021",
      "license": "CC-BY-4.0 (http://creativecommons.org/licenses/by/4.0/)",
      "source": "https://sketchfab.com/3d-models/anime-girl-model-base-free-5a1ef64055c748fd94447adbfa5a88a2",
      "title": "Anime girl model base free"
    },
    "generator": "Gestaltor 2021.3.0 Wheat Community (dev-30a8ec2*)",
    "version": "2.0"
  },
  "bufferViews": [
    {
      "buffer": 0,
      "byteLength": 208476,
      "byteOffset": 0,
      "byteStride": 12,
      "target": 34962
    },
    {
      "buffer": 0,
      "byteLength": 208476,
      "byteOffset": 208476,
      "byteStride": 12,
      "target": 34962
    },
    {
      "buffer": 0,
      "byteLength": 277968,
      "byteOffset": 416952,
      "byteStride": 16,
      "target": 34962
    },
    {
      "buffer": 0,
      "byteLength": 138984,
      "byteOffset": 694920,
      "byteStride": 8,
      "target": 34962
    },
    {
      "buffer": 0,
      "byteLength": 146208,
      "byteOffset": 833904,
      "target": 34963
    },
    {
      "buffer": 0,
      "byteLength": 4968,
      "byteOffset": 980112,
      "byteStride": 12,
      "target": 34962
    },
    {
      "buffer": 0,
      "byteLength": 4968,
      "byteOffset": 985080,
      "byteStride": 12,
      "target": 34962
    },
    {
      "buffer": 0,
      "byteLength": 6624,
      "byteOffset": 990048,
      "byteStride": 16,
      "target": 34962
    },
    {
      "buffer": 0,
      "byteLength": 3312,
      "byteOffset": 996672,
      "byteStride": 8,
      "target": 34962
    },
    {
      "buffer": 0,
      "byteLength": 3840,
      "byteOffset": 999984,
      "target": 34963
    },
    {
      "buffer": 0,
      "byteLength": 4956,
      "byteOffset": 1003824,
      "byteStride": 12,
      "target": 34962
    },
    {
      "buffer": 0,
      "byteLength": 4956,
      "byteOffset": 1008780,
      "byteStride": 12,
      "target": 34962
    },
    {
      "buffer": 0,
      "byteLength": 6608,
      "byteOffset": 1013736,
      "byteStride": 16,
      "target": 34962
    },
    {
      "buffer": 0,
      "byteLength": 3304,
      "byteOffset": 1020344,
      "byteStride": 8,
      "target": 34962
    },
    {
      "buffer": 0,
      "byteLength": 3840,
      "byteOffset": 1023648,
      "target": 34963
    },
    {
      "buffer": 0,
      "byteLength": 2748,
      "byteOffset": 1027488,
      "byteStride": 12,
      "target": 34962
    },
    {
      "buffer": 0,
      "byteLength": 2748,
      "byteOffset": 1030236,
      "byteStride": 12,
      "target": 34962
    },
    {
      "buffer": 0,
      "byteLength": 3664,
      "byteOffset": 1032984,
      "byteStride": 16,
      "target": 34962
    },
    {
      "buffer": 0,
      "byteLength": 1832,
      "byteOffset": 1036648,
      "byteStride": 8,
      "target": 34962
    },
    {
      "buffer": 0,
      "byteLength": 1920,
      "byteOffset": 1038480,
      "target": 34963
    },
    {
      "buffer": 0,
      "byteLength": 3900,
      "byteOffset": 1040400,
      "byteStride": 12,
      "target": 34962
    },
    {
      "buffer": 0,
      "byteLength": 3900,
      "byteOffset": 1044300,
      "byteStride": 12,
      "target": 34962
    },
    {
      "buffer": 0,
      "byteLength": 5200,
      "byteOffset": 1048200,
      "byteStride": 16,
      "target": 34962
    },
    {
      "buffer": 0,
      "byteLength": 2600,
      "byteOffset": 1053400,
      "byteStride": 8,
      "target": 34962
    },
    {
      "buffer": 0,
      "byteLength": 1728,
      "byteOffset": 1056000,
      "target": 34963
    }
  ],
  "buffers": [
    {
      "byteLength": 1057728,
      "uri": "scene.bin"
    }
  ],
  "extensionsUsed": ["KHR_materials_pbrSpecularGlossiness"],
  "materials": [
    {
      "alphaMode": "OPAQUE",
      "doubleSided": true,
      "emissiveFactor": [0.0, 0.0, 0.0],
      "extensions": {
        "KHR_materials_pbrSpecularGlossiness": {
          "diffuseFactor": [
            0.7243193781653797,
            0.6966081554210876,
            0.6198731962537675,
            1.0
          ],
          "glossinessFactor": 0.6114710365853658,
          "specularFactor": [
            0.1053734756097561,
            0.1053734756097561,
            0.1053734756097561
          ]
        }
      },
      "name": "Default"
    }
  ],
  "meshes": [
    {
      "name": "Thorax_2_Default_0",
      "primitives": [
        {
          "attributes": {
            "NORMAL": 1,
            "POSITION": 0,
            "TANGENT": 2,
            "TEXCOORD_0": 3
          },
          "indices": 4,
          "material": 0,
          "mode": 4
        }
      ]
    }
  ],
  "nodes": [
    {
      "mesh": 0,
      "name": "Thorax_2_Default_0",
      "translation": [0.0, 14.117870837508235, 0.0]
    }
  ],
  "scene": 0,
  "scenes": [
    {
      "name": "OSG_Scene",
      "nodes": [0]
    }
  ]
}
